<svg fill="#ffffff" xmlns="http://www.w3.org/2000/svg"  viewBox="0 0 24 24" width="24px" height="24px"><path d="M 19 0 C 16.25 0 14 2.25 14 5 C 14 6.0030055 14.306597 6.9356333 14.820312 7.7207031 L 14 11 L 16.929688 9.5351562 C 17.562959 9.8266566 18.260331 10 19 10 C 21.75 10 24 7.75 24 5 C 24 2.25 21.75 0 19 0 z M 18.253906 2 L 19.748047 2 L 19.582031 5.9863281 L 18.417969 5.9863281 L 18.253906 2 z M 8.5 5 C 6.5788117 5 5 6.5788117 5 8.5 C 5 10.421188 6.5788117 12 8.5 12 C 10.421188 12 12 10.421188 12 8.5 C 12 6.5788117 10.421188 5 8.5 5 z M 19 6.734375 C 19.104 6.734375 19.199203 6.7511094 19.283203 6.7871094 C 19.368203 6.8231094 19.44 6.8725938 19.5 6.9335938 C 19.559 6.9945937 19.604719 7.0663906 19.636719 7.1503906 C 19.668719 7.2333906 19.685547 7.3248281 19.685547 7.4238281 C 19.684547 7.5198281 19.669719 7.6074063 19.636719 7.6914062 C 19.604719 7.7754062 19.559 7.8472031 19.5 7.9082031 C 19.44 7.9692031 19.368203 8.0187344 19.283203 8.0527344 C 19.199203 8.0867344 19.104 8.1035156 19 8.1035156 C 18.895 8.1035156 18.801797 8.0877344 18.716797 8.0527344 C 18.633797 8.0197344 18.560953 7.9692031 18.501953 7.9082031 C 18.442953 7.8472031 18.396281 7.7754063 18.363281 7.6914062 C 18.330281 7.6074063 18.314453 7.5188281 18.314453 7.4238281 C 18.314453 7.3248281 18.331281 7.2333906 18.363281 7.1503906 C 18.396281 7.0663906 18.442953 6.9945938 18.501953 6.9335938 C 18.560953 6.8725938 18.633797 6.8231094 18.716797 6.7871094 C 18.801797 6.7511094 18.896 6.734375 19 6.734375 z M 8.5 7 C 9.3408117 7 10 7.6591883 10 8.5 C 10 9.3408117 9.3408117 10 8.5 10 C 7.6591883 10 7 9.3408117 7 8.5 C 7 7.6591883 7.6591883 7 8.5 7 z M 8.5 14 C 7.0128901 14 5.3015681 14.42164 3.8496094 15.126953 C 3.12363 15.479609 2.464223 15.902028 1.9394531 16.439453 C 1.4146832 16.976878 1 17.677714 1 18.5 L 1 21 L 16 21 L 16 20 L 16 18.5 C 16 17.677714 15.585317 16.976878 15.060547 16.439453 C 14.535777 15.902028 13.87637 15.479609 13.150391 15.126953 C 11.698432 14.42164 9.9871099 14 8.5 14 z M 8.5 16 C 9.5798901 16 11.119099 16.364094 12.275391 16.925781 C 12.853536 17.206625 13.33602 17.535987 13.628906 17.835938 C 13.921793 18.135886 14 18.356286 14 18.5 L 14 19 L 3 19 L 3 18.5 C 3 18.356286 3.0782073 18.135887 3.3710938 17.835938 C 3.66398 17.535988 4.1464637 17.206625 4.7246094 16.925781 C 5.8809006 16.364094 7.4201099 16 8.5 16 z"/></svg>