<svg fill="#000000" xmlns="http://www.w3.org/2000/svg"  viewBox="0 0 24 24" width="24px" height="24px"><path d="M 11.583984 2.0078125 A 10 10 0 0 0 12 22 A 10 10 0 0 0 22 12 A 10 10 0 0 0 11.583984 2.0078125 z M 12 4 A 8 8 0 0 1 20 12 A 8 8 0 1 1 12 4 z M 16.015625 7.9960938 A 1.0040916 1.0040916 0 0 0 15.289062 8.2890625 L 11 12.589844 L 9.7109375 11.289062 A 1.0040916 1.0040916 0 0 0 8.2890625 12.710938 L 10.289062 14.710938 A 1 1 0 0 0 11 15 A 1 1 0 0 0 11.710938 14.710938 L 16.710938 9.7109375 A 1.0040916 1.0040916 0 0 0 16.015625 7.9960938 z"/></svg>